<svg width="23" height="22" viewBox="0 0 23 22" fill="none" xmlns="http://www.w3.org/2000/svg">
<path d="M11.3567 0C5.21783 0 0.245607 4.97222 0.245607 11.1111C0.244347 13.4436 0.977617 15.7173 2.3414 17.6096C3.70518 19.5019 5.6302 20.9167 7.8434 21.6533C8.3989 21.75 8.6067 21.4166 8.6067 21.1244C8.6067 20.8611 8.5923 19.9866 8.5923 19.0555C5.8012 19.57 5.07894 18.3755 4.85672 17.75C4.73116 17.43 4.19005 16.4444 3.71783 16.18C3.32894 15.9722 2.77339 15.4577 3.70339 15.4444C4.57894 15.43 5.20339 16.25 5.4123 16.5833C6.4123 18.2633 8.0101 17.7911 8.6478 17.5C8.7456 16.7778 9.0367 16.2922 9.3567 16.0144C6.8845 15.7366 4.30116 14.7778 4.30116 10.5278C4.30116 9.31893 4.73116 8.32003 5.4401 7.54113C5.32894 7.26333 4.94005 6.12443 5.5512 4.59667C5.5512 4.59667 6.4812 4.30556 8.6067 5.73663C9.5112 5.48563 10.4458 5.35923 11.3845 5.36113C12.3289 5.36113 13.2734 5.48553 14.1623 5.73553C16.2867 4.29111 17.2178 4.59778 17.2178 4.59778C17.8289 6.12553 17.4401 7.26443 17.3289 7.54223C18.0367 8.32003 18.4678 9.30553 18.4678 10.5278C18.4678 14.7922 15.8712 15.7366 13.3989 16.0144C13.8012 16.3611 14.1489 17.0278 14.1489 18.07C14.1489 19.5555 14.1345 20.75 14.1345 21.1255C14.1345 21.4166 14.3434 21.7633 14.8989 21.6522C17.1045 20.9075 19.0211 19.49 20.3788 17.599C21.7366 15.7081 22.4672 13.439 22.4678 11.1111C22.4678 4.97222 17.4956 0 11.3567 0Z" fill="#D9D9D9"/>
</svg>
