<svg width="866" height="683" viewBox="0 0 866 683" fill="none" xmlns="http://www.w3.org/2000/svg">
<path d="M613.25 587.947C613.878 558.191 489.754 531.436 336.01 528.189C182.266 524.942 57.1226 546.431 56.4941 576.187C55.8656 605.943 179.99 632.698 333.734 635.945C487.478 639.192 612.621 617.703 613.25 587.947Z" fill="#0071F2"/>
<path opacity="0.7" d="M613.25 587.947C613.878 558.191 489.754 531.436 336.01 528.189C182.266 524.942 57.1226 546.431 56.4941 576.187C55.8656 605.943 179.99 632.698 333.734 635.945C487.478 639.192 612.621 617.703 613.25 587.947Z" fill="white"/>
<path d="M113.89 415.2C113.89 415.2 26.11 332.36 74.34 222.36C87.8978 191.852 109.289 165.475 136.34 145.91C196.7 101.84 349.44 14.64 579.21 48.32C603.893 51.8526 627.508 60.7254 648.41 74.32C682.13 96.44 717.88 137.08 702.67 206.71C697.3 231.32 698.51 256.99 707.37 280.57C716.15 303.94 732.77 332.57 763.72 363.52C763.72 363.52 829.72 427.22 765.52 482.37C751.803 494.024 735.588 502.366 718.13 506.75C638.15 527.24 314.66 595.22 113.89 415.2Z" fill="#0071F2"/>
<path opacity="0.7" d="M113.89 415.2C113.89 415.2 26.11 332.36 74.34 222.36C87.8978 191.852 109.289 165.475 136.34 145.91C196.7 101.84 349.44 14.64 579.21 48.32C603.893 51.8526 627.508 60.7254 648.41 74.32C682.13 96.44 717.88 137.08 702.67 206.71C697.3 231.32 698.51 256.99 707.37 280.57C716.15 303.94 732.77 332.57 763.72 363.52C763.72 363.52 829.72 427.22 765.52 482.37C751.803 494.024 735.588 502.366 718.13 506.75C638.15 527.24 314.66 595.22 113.89 415.2Z" fill="#FAFAFA"/>
<path d="M495.68 316.15C495.68 316.15 493.48 315.42 490.02 313.9L490.42 312.99C493.83 314.48 495.97 315.19 495.99 315.2L495.68 316.15ZM484.56 311.33C482.78 310.43 480.99 309.47 479.24 308.47L479.73 307.61C481.47 308.61 483.24 309.54 485.01 310.43L484.56 311.33ZM474.07 305.33C472.37 304.24 470.69 303.1 469.07 301.94L469.65 301.13C471.25 302.28 472.91 303.41 474.6 304.48L474.07 305.33ZM464.27 298.33C462.7 297.06 461.15 295.74 459.69 294.41L460.36 293.67C461.81 294.99 463.36 296.3 464.9 297.55L464.27 298.33ZM455.35 290.2C453.95 288.75 452.59 287.2 451.35 285.72L452.12 285.08C453.38 286.58 454.72 288.08 456.12 289.51L455.35 290.2ZM447.6 281C446.41 279.36 445.28 277.67 444.25 276L445.1 275.48C446.1 277.15 447.23 278.82 448.41 280.48L447.6 281ZM441.31 270.7C440.41 268.91 439.57 267.06 438.82 265.21L439.74 264.83C440.48 266.66 441.31 268.48 442.2 270.25L441.31 270.7ZM436.79 259.52C436.2 257.61 435.69 255.65 435.26 253.69L436.26 253.48C436.68 255.41 437.19 257.34 437.77 259.23L436.79 259.52ZM434.22 247.75C433.96 245.75 433.77 243.75 433.66 241.75L434.66 241.7C434.76 243.7 434.95 245.7 435.21 247.62L434.22 247.75ZM434.56 235.75H433.56C433.61 233.75 433.72 231.75 433.91 229.75L434.91 229.84C434.72 231.74 434.61 233.74 434.56 235.7V235.75ZM435.65 223.87L434.65 223.72C434.96 221.77 435.33 219.77 435.77 217.79L436.77 218.01C436.32 219.92 436 221.89 435.65 223.82V223.87ZM438.19 212.21L437.19 211.95C437.72 210.05 438.31 208.11 438.95 206.18L439.9 206.5C439.3 208.36 438.72 210.28 438.19 212.16V212.21ZM442 200.82L441.06 200.46C441.42 199.54 441.79 198.6 442.17 197.66C442.592 196.726 443.07 195.818 443.6 194.94L444.47 195.44C443.96 196.277 443.502 197.146 443.1 198.04C442.67 199 442.3 199.9 442 200.82ZM447.79 190.52L447 189.92C448.17 188.36 449.47 186.8 450.86 185.27L451.6 185.94C450.18 187.45 448.9 189 447.74 190.52H447.79ZM455.79 181.69L455.11 180.97C456.54 179.61 458.06 178.28 459.64 176.97L460.27 177.74C458.66 179 457.15 180.36 455.73 181.69H455.79ZM465.01 174.13L464.43 173.32C466.03 172.17 467.71 171.04 469.43 169.96L469.96 170.8C468.21 171.87 466.54 173 465 174.13H465.01ZM475 167.75L474.51 166.88C476.23 165.88 478.02 164.98 479.84 164.08L480.28 164.98C478.52 165.87 476.74 166.8 475 167.75ZM485.7 162.46L485.3 161.54C487.11 160.75 488.98 159.99 490.87 159.26L491.22 160.19C489.39 160.91 487.53 161.68 485.74 162.46H485.7ZM496.84 158.16L496.52 157.21C498.39 156.58 500.32 155.96 502.25 155.38L502.54 156.38C500.65 156.92 498.74 157.53 496.88 158.16H496.84ZM508.3 154.74L508.05 153.74L508.38 153.65L508.63 154.65L508.3 154.74Z" fill="#2F2E41"/>
<path d="M682.82 425.81H799.59C801.619 425.81 803.565 426.616 804.999 428.051C806.434 429.485 807.24 431.431 807.24 433.46V462.46C807.24 480.187 800.198 497.188 787.663 509.723C775.128 522.258 758.127 529.3 740.4 529.3H682.82V425.81Z" fill="#374151"/>
<path opacity="0.43" d="M734.46 507.74C752.194 507.74 766.57 493.364 766.57 475.63C766.57 457.896 752.194 443.52 734.46 443.52C716.726 443.52 702.35 457.896 702.35 475.63C702.35 493.364 716.726 507.74 734.46 507.74Z" fill="#F1F2F2"/>
<path d="M745.42 472.81C745.422 470.709 744.853 468.648 743.772 466.846C742.692 465.045 741.141 463.571 739.287 462.584C737.433 461.597 735.345 461.133 733.247 461.243C731.149 461.352 729.121 462.031 727.379 463.205C725.638 464.38 724.249 466.007 723.362 467.911C722.475 469.815 722.123 471.925 722.344 474.014C722.565 476.103 723.351 478.093 724.617 479.769C725.883 481.446 727.581 482.746 729.53 483.53V498.69C729.53 499.971 730.039 501.2 730.945 502.105C731.851 503.011 733.079 503.52 734.36 503.52C735.641 503.52 736.87 503.011 737.775 502.105C738.681 501.2 739.19 499.971 739.19 498.69V483.06C741.067 482.086 742.641 480.615 743.74 478.807C744.839 477 745.42 474.925 745.42 472.81Z" fill="white"/>
<path d="M722.28 378.7H756.61C760.853 378.7 764.923 380.386 767.924 383.386C770.924 386.387 772.61 390.457 772.61 394.7V429.43H756.51L756.17 401.64C756.146 399.712 755.364 397.87 753.992 396.515C752.619 395.16 750.769 394.4 748.84 394.4H721.23L722.28 378.7Z" fill="#FAFAFA"/>
<path d="M703.06 543.7L503.46 538.46L534.52 143.77C534.788 140.322 536.352 137.103 538.898 134.761C541.443 132.42 544.781 131.129 548.24 131.15L734.78 132.05C736.253 132.056 737.709 132.367 739.056 132.962C740.403 133.558 741.612 134.426 742.608 135.512C743.603 136.598 744.364 137.878 744.841 139.271C745.318 140.665 745.501 142.142 745.38 143.61L713.21 534.56C713.011 537.094 711.847 539.454 709.959 541.155C708.07 542.856 705.601 543.767 703.06 543.7Z" fill="#2F2E41"/>
<path opacity="0.2" d="M703.06 543.7L503.46 538.46L534.52 143.77C534.788 140.322 536.352 137.103 538.898 134.761C541.443 132.42 544.781 131.129 548.24 131.15L734.78 132.05C736.253 132.056 737.709 132.367 739.056 132.962C740.403 133.558 741.612 134.426 742.608 135.512C743.603 136.598 744.364 137.878 744.841 139.271C745.318 140.665 745.501 142.142 745.38 143.61L713.21 534.56C713.011 537.094 711.847 539.454 709.959 541.155C708.07 542.856 705.601 543.767 703.06 543.7Z" fill="black"/>
<path d="M683.68 543.7L484.07 538.46L515.13 143.77C515.4 140.323 516.965 137.105 519.51 134.764C522.055 132.423 525.392 131.132 528.85 131.15L715.4 132.05C716.873 132.056 718.329 132.367 719.676 132.962C721.023 133.558 722.233 134.426 723.228 135.512C724.224 136.598 724.984 137.878 725.461 139.271C725.938 140.665 726.121 142.142 726 143.61L693.83 534.56C693.629 537.093 692.464 539.452 690.576 541.152C688.688 542.852 686.22 543.764 683.68 543.7Z" fill="#2F2E41"/>
<path d="M743.49 219.05L739.15 267.53C737.22 276.53 729.64 274.84 726.97 273.95C726.699 273.861 726.466 273.684 726.308 273.446C726.15 273.208 726.077 272.924 726.1 272.64L726.58 265.81L730.35 212.32C730.388 211.871 730.576 211.448 730.885 211.119C731.194 210.791 731.604 210.576 732.05 210.51C734.229 210.163 736.461 210.397 738.52 211.19C739.831 211.739 740.989 212.601 741.89 213.7C743.104 215.204 743.679 217.126 743.49 219.05Z" fill="#2F2E41"/>
<path opacity="0.2" d="M743.49 219.05L739.15 267.53C737.22 276.53 729.64 274.84 726.97 273.95C726.699 273.861 726.466 273.684 726.308 273.446C726.15 273.208 726.077 272.924 726.1 272.64L726.58 265.81C729.58 265.72 734.37 264.56 734.81 258.24L738.52 211.19C739.831 211.739 740.989 212.601 741.89 213.7C743.104 215.204 743.679 217.126 743.49 219.05Z" fill="black"/>
<path d="M668 136.41H713.15C714.118 136.407 715.075 136.605 715.962 136.99C716.85 137.376 717.647 137.941 718.305 138.651C718.963 139.36 719.466 140.198 719.784 141.112C720.101 142.026 720.226 142.996 720.15 143.96L688.81 533C688.693 534.437 688.034 535.775 686.966 536.743C685.898 537.71 684.501 538.235 683.06 538.21L489.06 534.9L521.92 142.7C522.065 140.977 522.852 139.372 524.124 138.202C525.396 137.032 527.061 136.381 528.79 136.38H562.7C563.22 136.381 563.731 136.514 564.185 136.766C564.64 137.017 565.023 137.38 565.3 137.82L571.18 147.22C571.865 148.602 572.925 149.764 574.239 150.572C575.553 151.38 577.068 151.802 578.61 151.79H651C653.051 151.808 655.059 151.205 656.76 150.06C660.819 147.193 663.834 143.082 665.35 138.35C665.545 137.797 665.902 137.317 666.375 136.97C666.848 136.624 667.414 136.429 668 136.41Z" fill="#F1F2F2"/>
<path d="M625.18 139.9H593.73C592.266 139.9 591.08 141.086 591.08 142.55V142.56C591.08 144.024 592.266 145.21 593.73 145.21H625.18C626.644 145.21 627.83 144.024 627.83 142.56V142.55C627.83 141.086 626.644 139.9 625.18 139.9Z" fill="#F1F2F2"/>
<path d="M637.75 139.9H633.81C632.346 139.9 631.16 141.086 631.16 142.55V142.56C631.16 144.024 632.346 145.21 633.81 145.21H637.75C639.213 145.21 640.4 144.024 640.4 142.56V142.55C640.4 141.086 639.213 139.9 637.75 139.9Z" fill="#F1F2F2"/>
<path opacity="0.1" d="M670.21 136.41C670.21 136.41 665.52 158.46 651.66 159H574.35C574.35 159 550.55 153.13 547.35 190.45L508.87 535.27L683.06 538.27C683.06 538.27 688.5 536.87 688.81 533.06L720.15 144C720.15 144 720.23 136.45 713.15 136.45L670.21 136.41Z" fill="#0071F2"/>
<path d="M683.75 192.96C694.166 192.96 702.61 184.516 702.61 174.1C702.61 163.684 694.166 155.24 683.75 155.24C673.334 155.24 664.89 163.684 664.89 174.1C664.89 184.516 673.334 192.96 683.75 192.96Z" fill="#2F2E41"/>
<path opacity="0.2" d="M683.75 192.96C694.166 192.96 702.61 184.516 702.61 174.1C702.61 163.684 694.166 155.24 683.75 155.24C673.334 155.24 664.89 163.684 664.89 174.1C664.89 184.516 673.334 192.96 683.75 192.96Z" fill="black"/>
<path d="M564.38 168.38H535.11C534.845 168.38 534.59 168.275 534.403 168.087C534.215 167.9 534.11 167.645 534.11 167.38C534.11 167.115 534.215 166.86 534.403 166.673C534.59 166.485 534.845 166.38 535.11 166.38H564.38C564.645 166.38 564.9 166.485 565.087 166.673C565.275 166.86 565.38 167.115 565.38 167.38C565.38 167.645 565.275 167.9 565.087 168.087C564.9 168.275 564.645 168.38 564.38 168.38Z" fill="#2F2E41"/>
<path d="M562.58 177.46H533.31C533.045 177.46 532.791 177.355 532.603 177.167C532.415 176.98 532.31 176.725 532.31 176.46C532.31 176.195 532.415 175.94 532.603 175.753C532.791 175.565 533.045 175.46 533.31 175.46H562.58C562.845 175.46 563.1 175.565 563.287 175.753C563.475 175.94 563.58 176.195 563.58 176.46C563.58 176.725 563.475 176.98 563.287 177.167C563.1 177.355 562.845 177.46 562.58 177.46Z" fill="#2F2E41"/>
<path d="M562 186.54H532.76C532.495 186.54 532.24 186.435 532.053 186.247C531.865 186.06 531.76 185.805 531.76 185.54C531.76 185.275 531.865 185.02 532.053 184.833C532.24 184.645 532.495 184.54 532.76 184.54H562C562.265 184.54 562.52 184.645 562.707 184.833C562.895 185.02 563 185.275 563 185.54C563 185.805 562.895 186.06 562.707 186.247C562.52 186.435 562.265 186.54 562 186.54Z" fill="#2F2E41"/>
<path opacity="0.1" d="M518.54 435.65L671.28 434.43C675.603 434.393 679.754 432.736 682.915 429.787C686.075 426.837 688.015 422.81 688.35 418.5L701.86 243.39C701.975 241.907 701.784 240.417 701.299 239.012C700.814 237.606 700.044 236.315 699.039 235.22C698.033 234.124 696.813 233.247 695.454 232.644C694.096 232.04 692.627 231.722 691.14 231.71L534.29 230.48C531.562 230.458 528.925 231.466 526.908 233.303C524.891 235.14 523.642 237.671 523.41 240.39L507.65 423.9C507.523 425.402 507.712 426.915 508.203 428.34C508.693 429.766 509.476 431.073 510.501 432.179C511.526 433.285 512.77 434.165 514.155 434.762C515.539 435.36 517.032 435.662 518.54 435.65Z" fill="#0071F2"/>
<path d="M672.11 406.78H526.27C523.034 406.78 520.41 409.404 520.41 412.64C520.41 415.876 523.034 418.5 526.27 418.5H672.11C675.346 418.5 677.97 415.876 677.97 412.64C677.97 409.404 675.346 406.78 672.11 406.78Z" fill="white"/>
<path d="M689.69 301.33L681.55 384.52C681.334 386.758 680.292 388.835 678.629 390.347C676.965 391.859 674.798 392.698 672.55 392.7H530C528.761 392.7 527.536 392.441 526.403 391.94C525.271 391.438 524.255 390.705 523.423 389.788C522.59 388.871 521.959 387.789 521.569 386.613C521.179 385.437 521.04 384.193 521.16 382.96L529.04 301.33L607.2 250.56C609.344 249.168 611.862 248.463 614.417 248.54C616.972 248.617 619.443 249.472 621.5 250.99L689.69 301.33Z" fill="#BCBEC0"/>
<path opacity="0.2" d="M529.05 301.33H689.69L609.78 331.42C606.974 332.482 603.868 332.428 601.1 331.27L529.05 301.33Z" fill="black"/>
<path d="M606 365.25C606.768 365.001 607.453 364.547 607.982 363.938C608.51 363.328 608.863 362.585 609 361.79C609.111 361.01 609.046 360.214 608.81 359.463C608.573 358.711 608.171 358.022 607.632 357.446C607.094 356.87 606.433 356.423 605.699 356.136C604.965 355.85 604.176 355.731 603.39 355.79C602.086 355.834 600.831 356.297 599.81 357.11C595.52 361.4 599.81 365.26 599.81 365.26L599.31 373.99C599.294 374.394 599.359 374.797 599.503 375.175C599.646 375.553 599.865 375.898 600.145 376.189C600.425 376.481 600.762 376.713 601.134 376.871C601.506 377.029 601.906 377.11 602.31 377.11C603.051 377.101 603.762 376.818 604.307 376.316C604.851 375.814 605.191 375.128 605.26 374.39L606 365.25Z" fill="white"/>
<path opacity="0.24" d="M497.91 428.91L712.7 236.38L706.52 313.19L492.92 488.43L497.91 428.91Z" fill="#F1F2F2"/>
<path opacity="0.24" d="M538.36 535.77L699.49 400.37L692.4 488.43L624.44 537.24L538.36 535.77Z" fill="#F1F2F2"/>
<path opacity="0.21" d="M599.47 277.75H552.39C551.181 277.749 549.985 277.493 548.881 276.998C547.778 276.504 546.791 275.781 545.986 274.879C545.18 273.976 544.575 272.914 544.208 271.761C543.842 270.609 543.723 269.392 543.86 268.19L548.8 225.09C549.06 222.822 550.146 220.729 551.85 219.209C553.554 217.69 555.757 216.85 558.04 216.85H673.51C674.803 216.85 676.082 217.12 677.264 217.642C678.447 218.164 679.508 218.927 680.379 219.882C681.251 220.837 681.913 221.963 682.325 223.189C682.737 224.415 682.888 225.713 682.77 227L678.65 270C678.448 272.126 677.462 274.1 675.882 275.536C674.303 276.973 672.245 277.77 670.11 277.77H614.65C614.225 277.768 613.808 277.877 613.438 278.086C613.068 278.295 612.758 278.596 612.54 278.96L606.54 288.87C606.441 289.038 606.296 289.173 606.121 289.259C605.947 289.346 605.751 289.379 605.558 289.356C605.365 289.333 605.183 289.253 605.034 289.128C604.885 289.003 604.776 288.836 604.72 288.65L601.8 279.48C601.644 278.983 601.334 278.547 600.916 278.237C600.497 277.926 599.991 277.756 599.47 277.75Z" fill="white"/>
<path opacity="0.39" d="M605.7 289.83H605.52C605.236 289.801 604.967 289.692 604.744 289.515C604.52 289.337 604.352 289.1 604.26 288.83L601.34 279.66C601.216 279.263 600.967 278.916 600.63 278.671C600.293 278.426 599.886 278.296 599.47 278.3H552.39C551.112 278.297 549.848 278.024 548.682 277.499C547.517 276.975 546.475 276.209 545.625 275.254C544.776 274.299 544.137 273.175 543.752 271.956C543.367 270.737 543.244 269.45 543.39 268.18L548.33 225.08C548.601 222.69 549.742 220.483 551.537 218.882C553.332 217.281 555.655 216.397 558.06 216.4H673.51C674.876 216.399 676.227 216.684 677.476 217.236C678.725 217.788 679.845 218.595 680.764 219.606C681.683 220.616 682.38 221.807 682.812 223.103C683.244 224.399 683.4 225.77 683.27 227.13L679.15 270C678.941 272.244 677.903 274.33 676.239 275.85C674.575 277.37 672.404 278.215 670.15 278.22H614.65C614.314 278.223 613.983 278.31 613.69 278.475C613.396 278.639 613.148 278.875 612.97 279.16L606.97 289.07C606.844 289.298 606.661 289.488 606.438 289.621C606.215 289.755 605.96 289.827 605.7 289.83ZM558 217.35C555.841 217.35 553.758 218.144 552.147 219.581C550.535 221.017 549.508 222.996 549.26 225.14L544.32 268.25C544.192 269.379 544.304 270.522 544.647 271.605C544.99 272.687 545.558 273.686 546.312 274.535C547.067 275.384 547.992 276.064 549.027 276.532C550.062 277 551.184 277.245 552.32 277.25H599.4C600.029 277.247 600.642 277.445 601.149 277.816C601.657 278.187 602.032 278.71 602.22 279.31L605.14 288.48C605.17 288.573 605.226 288.655 605.301 288.717C605.377 288.779 605.468 288.818 605.565 288.83C605.662 288.841 605.76 288.825 605.848 288.782C605.935 288.74 606.009 288.673 606.06 288.59L612.06 278.68C612.327 278.245 612.7 277.886 613.145 277.636C613.589 277.386 614.09 277.253 614.6 277.25H670.06C672.064 277.244 673.993 276.492 675.472 275.14C676.951 273.789 677.874 271.935 678.06 269.94L682.18 226.94C682.297 225.72 682.158 224.488 681.771 223.325C681.384 222.162 680.758 221.092 679.933 220.185C679.108 219.278 678.102 218.554 676.98 218.059C675.859 217.564 674.646 217.309 673.42 217.31L558 217.35Z" fill="#0071F2"/>
<path d="M572.46 239.42L572.53 239.5C572.868 239.875 573.34 240.102 573.844 240.13C574.348 240.158 574.843 239.986 575.22 239.65C576.79 238.27 579.59 236.54 582.76 237.89C582.76 237.89 585.9 240.51 582.76 243.99L569 257.9C568.827 258.073 568.71 258.293 568.663 258.532C568.615 258.772 568.641 259.02 568.735 259.245C568.829 259.471 568.989 259.663 569.193 259.797C569.397 259.931 569.636 260.002 569.88 260H586C586.53 260 587.039 259.789 587.414 259.414C587.789 259.039 588 258.53 588 258C588 257.47 587.789 256.961 587.414 256.586C587.039 256.211 586.53 256 586 256H577.91C577.873 256.003 577.835 255.995 577.803 255.976C577.771 255.957 577.745 255.929 577.73 255.895C577.714 255.861 577.71 255.823 577.717 255.786C577.724 255.749 577.743 255.716 577.77 255.69L586 247.1C587.001 246.084 587.783 244.874 588.299 243.545C588.815 242.216 589.053 240.795 589 239.37C588.84 236.5 587.37 233.54 582.06 233.2C582.06 233.2 578.96 232.2 572.77 236.61C572.553 236.765 572.372 236.965 572.237 237.195C572.102 237.425 572.018 237.681 571.988 237.946C571.959 238.211 571.986 238.479 572.067 238.733C572.149 238.987 572.282 239.221 572.46 239.42Z" fill="white"/>
<path d="M600.8 237.2H610.35C610.567 237.2 610.783 237.157 610.984 237.073C611.185 236.99 611.367 236.867 611.52 236.713C611.674 236.559 611.795 236.376 611.877 236.174C611.96 235.973 612.001 235.758 612 235.54C612 235.102 611.826 234.683 611.517 234.373C611.207 234.064 610.788 233.89 610.35 233.89H596.46C596.285 233.892 596.117 233.958 595.987 234.076C595.858 234.194 595.777 234.356 595.76 234.53L594.76 245.98C594.732 246.305 594.772 246.633 594.878 246.942C594.983 247.251 595.152 247.535 595.373 247.776C595.594 248.017 595.862 248.209 596.161 248.34C596.46 248.472 596.783 248.54 597.11 248.54C597.457 248.532 597.798 248.45 598.11 248.3C599.32 247.73 602.68 246.46 605.33 248.54C606.021 249.163 606.453 250.022 606.54 250.948C606.627 251.874 606.363 252.799 605.8 253.54C605.102 254.594 604.103 255.414 602.933 255.892C601.763 256.37 600.476 256.484 599.24 256.22C597.987 255.937 596.822 255.35 595.85 254.51C595.462 254.19 594.968 254.027 594.466 254.055C593.963 254.083 593.49 254.299 593.14 254.66C592.955 254.883 592.82 255.143 592.746 255.423C592.671 255.702 592.658 255.995 592.707 256.28C592.757 256.565 592.868 256.836 593.032 257.075C593.197 257.313 593.411 257.513 593.66 257.66C597.29 259.66 604.78 262.44 609.15 255.5C609.943 254.204 610.413 252.736 610.52 251.22C610.6 249.975 610.372 248.73 609.858 247.594C609.344 246.457 608.559 245.464 607.572 244.702C606.585 243.94 605.425 243.432 604.196 243.222C602.966 243.012 601.704 243.108 600.52 243.5C600.12 243.642 599.732 243.816 599.36 244.02L599.99 237.86C599.994 237.761 600.02 237.665 600.064 237.577C600.108 237.489 600.171 237.411 600.247 237.349C600.324 237.286 600.412 237.241 600.508 237.215C600.603 237.19 600.703 237.184 600.8 237.2Z" fill="white"/>
<path d="M626.15 255.82L629.58 255.87C630.11 255.87 630.619 256.081 630.994 256.456C631.369 256.831 631.58 257.34 631.58 257.87C631.58 258.4 631.369 258.909 630.994 259.284C630.619 259.659 630.11 259.87 629.58 259.87H617.27C617.027 259.871 616.787 259.825 616.563 259.733C616.338 259.641 616.134 259.506 615.962 259.335C615.79 259.164 615.654 258.96 615.561 258.736C615.468 258.513 615.42 258.272 615.42 258.03C615.42 257.539 615.615 257.069 615.962 256.722C616.309 256.375 616.779 256.18 617.27 256.18H621.55L623.49 239.44L620.39 241.74C620.157 241.914 619.891 242.038 619.608 242.105C619.326 242.173 619.032 242.182 618.746 242.133C618.46 242.083 618.187 241.976 617.943 241.817C617.7 241.658 617.491 241.452 617.33 241.21C617.169 240.975 617.056 240.711 616.999 240.432C616.941 240.153 616.94 239.865 616.995 239.586C617.05 239.307 617.16 239.041 617.319 238.805C617.477 238.568 617.682 238.366 617.92 238.21L624.92 233.45C625.328 233.177 625.809 233.031 626.3 233.03C626.651 233.03 626.999 233.105 627.319 233.25C627.639 233.395 627.925 233.606 628.157 233.87C628.389 234.134 628.562 234.445 628.664 234.781C628.766 235.117 628.795 235.472 628.75 235.82L626.15 255.82Z" fill="white"/>
<path d="M648.25 255.87L651.68 255.93C652.21 255.93 652.719 256.141 653.094 256.516C653.469 256.891 653.68 257.4 653.68 257.93C653.68 258.46 653.469 258.969 653.094 259.344C652.719 259.719 652.21 259.93 651.68 259.93H639.37C638.879 259.93 638.409 259.735 638.062 259.388C637.715 259.041 637.52 258.571 637.52 258.08C637.52 257.838 637.568 257.597 637.661 257.374C637.754 257.15 637.891 256.946 638.062 256.775C638.234 256.604 638.438 256.469 638.663 256.377C638.887 256.285 639.128 256.239 639.37 256.24H643.65L645.59 239.5L642.49 241.8C642.259 241.964 641.997 242.081 641.721 242.143C641.444 242.205 641.158 242.211 640.879 242.162C640.6 242.113 640.334 242.009 640.095 241.855C639.857 241.702 639.651 241.503 639.49 241.27C639.327 241.036 639.213 240.772 639.154 240.494C639.094 240.215 639.092 239.927 639.146 239.647C639.2 239.368 639.31 239.102 639.468 238.865C639.627 238.628 639.832 238.426 640.07 238.27L647.07 233.51C647.476 233.232 647.958 233.086 648.45 233.09C648.801 233.09 649.149 233.165 649.469 233.31C649.789 233.455 650.075 233.666 650.307 233.93C650.539 234.194 650.712 234.505 650.814 234.841C650.916 235.177 650.946 235.532 650.9 235.88L648.25 255.87Z" fill="white"/>
<path d="M680.87 192.96C691.286 192.96 699.73 184.516 699.73 174.1C699.73 163.684 691.286 155.24 680.87 155.24C670.454 155.24 662.01 163.684 662.01 174.1C662.01 184.516 670.454 192.96 680.87 192.96Z" fill="#2F2E41"/>
<path d="M680.92 176.46C685.211 176.46 688.69 173.133 688.69 169.03C688.69 164.927 685.211 161.6 680.92 161.6C676.629 161.6 673.15 164.927 673.15 169.03C673.15 173.133 676.629 176.46 680.92 176.46Z" fill="white"/>
<path d="M670.21 189.66C670.21 189.66 670.89 182.1 676.06 179.13C677.37 178.368 678.875 178.006 680.389 178.088C681.902 178.17 683.359 178.692 684.58 179.59C686.73 181.22 688.95 184.48 689.22 191.01C689.22 191 679.27 196 670.21 189.66Z" fill="white"/>
<path d="M735 341.71C733.18 341.35 732.1 341.24 732.09 341.24L732.19 340.24C732.19 340.24 733.33 340.36 735.19 340.73L735 341.71Z" fill="#2F2E41"/>
<path d="M787 407.88C786.92 405.94 786.79 404.03 786.61 402.17L787.61 402.08C787.79 403.95 787.92 405.88 788 407.83L787 407.88ZM785.89 396.51C785.59 394.61 785.22 392.72 784.8 390.9L785.8 390.68C786.22 392.52 786.59 394.43 786.89 396.35L785.89 396.51ZM783.33 385.39C782.77 383.56 782.13 381.75 781.44 380.01L782.37 379.64C783.07 381.4 783.71 383.24 784.28 385.09L783.33 385.39ZM779.1 374.8C778.25 373.1 777.31 371.43 776.32 369.8L777.17 369.27C778.17 370.89 779.17 372.59 780 374.33L779.1 374.8ZM773.1 365.13C771.95 363.63 770.72 362.13 769.44 360.77L770.17 360.09C771.48 361.5 772.73 363 773.89 364.53L773.1 365.13ZM765.38 356.77C763.97 355.51 762.49 354.3 760.96 353.17L761.55 352.37C763.11 353.52 764.62 354.75 766.04 356.02L765.38 356.77ZM756.17 350C754.56 349 752.87 348.1 751.17 347.26L751.62 346.36C753.35 347.22 755.06 348.16 756.7 349.15L756.17 350ZM745.94 344.95C744.17 344.26 742.35 343.63 740.54 343.09L740.82 342.09C742.66 342.64 744.5 343.28 746.3 343.98L745.94 344.95Z" fill="#2F2E41"/>
<path d="M788 416.67H787C787 415.67 787 414.67 787.06 413.67H788.06C788 414.65 788 415.65 788 416.67Z" fill="#2F2E41"/>
<path d="M648.09 130.56L647.86 129.56C647.86 129.56 650.16 129.03 653.69 128.09L653.95 129.09C650.4 130 648.11 130.55 648.09 130.56ZM659.76 127.47L659.48 126.47C661.43 125.9 663.36 125.32 665.23 124.74L665.52 125.74C663.65 126.32 661.71 126.9 659.76 127.47ZM671.25 123.86L670.92 122.92C672.92 122.24 674.79 121.56 676.57 120.92L676.92 121.85C675.13 122.5 673.22 123.19 671.25 123.86ZM682.52 119.57L682.12 118.66C684.12 117.82 685.9 116.97 687.55 116.14L688 117.04C686.34 117.88 684.49 118.73 682.52 119.57ZM693.27 114.06L692.73 113.22C694.091 112.363 695.381 111.4 696.59 110.34L697.25 111.09C696.006 112.186 694.675 113.179 693.27 114.06Z" fill="#2F2E41"/>
<path d="M701.6 99.11L733.48 105.32L708.23 106.56L715.26 120.39L741.62 106.84L697.6 88.76L701.6 99.11Z" fill="#0071F2"/>
<path d="M701.6 99.11L697.6 109.32H709.63L708.23 106.56L733.48 105.32L701.6 99.11Z" fill="#0071F2"/>
<path opacity="0.2" d="M701.6 99.11L697.6 109.32H709.63L708.23 106.56L733.48 105.32L701.6 99.11Z" fill="black"/>
<path d="M513.5 455.45C513.5 455.45 542.08 446.91 552.8 460.81C552.8 460.81 576.63 495.75 584.57 523.55C584.57 523.55 613.57 584.45 526.2 586.96L513.5 455.45Z" fill="#BCBEC0"/>
<path d="M470.59 468.48C470.59 468.48 525.73 443.34 538.02 461.62L545.45 476.77C537.825 475.172 530.083 474.199 522.3 473.86L465.16 470.77L470.59 468.48Z" fill="#D1D3D4"/>
<path d="M487.78 587H523.78C523.78 587 568.66 580.67 564.28 538.63C564.32 538.59 558.51 578.82 487.78 587Z" fill="#D1D3D4"/>
<path d="M545.45 476.77C545.45 476.77 554.3 480.06 557.8 497.28L563.49 522.37C563.49 522.37 577.83 575.37 487.78 586.96H304.78C304.78 586.96 359.61 575.76 340.36 520.18L324.64 485.18L449.27 470.91L465.2 470.74C465.2 470.74 531.45 473.05 545.45 476.77Z" fill="#A7A9AC"/>
<path d="M490.2 535.11C488.415 536.847 486.142 537.999 483.686 538.412C481.229 538.825 478.705 538.479 476.45 537.42L457.13 522.86C455.692 521.499 454.652 519.771 454.123 517.862C453.595 515.954 453.597 513.937 454.13 512.03L449.23 505.5L457.94 497.34L461.15 500.49C464.632 505.666 468.892 510.273 473.78 514.15L473.87 514.22C479.797 519.041 486.177 523.277 492.92 526.87C497.68 529.8 490.2 535.11 490.2 535.11Z" fill="#F9B499"/>
<path d="M504.49 538.59L497.68 544.5C488.97 550.76 474.68 540.5 474.68 540.5L478.22 547.17L475.22 548.67L457.53 527.3C455.361 525.477 453.852 522.993 453.234 520.228C452.616 517.464 452.924 514.572 454.11 512C453.577 513.907 453.575 515.924 454.103 517.832C454.632 519.741 455.672 521.469 457.11 522.83L476.43 537.39C478.685 538.449 481.209 538.795 483.666 538.382C486.122 537.969 488.395 536.817 490.18 535.08C490.18 535.08 497.66 529.77 492.9 526.78C486.157 523.187 479.777 518.951 473.85 514.13C475.9 515.61 500.66 529.5 500.66 529.5C509.66 534.7 504.49 538.59 504.49 538.59Z" fill="#0071F2"/>
<path opacity="0.2" d="M304.74 587C304.74 587 324.16 582.5 334.84 569.33C334.84 569.33 398.06 560.92 441.68 563.7L546.22 566.12C546.22 566.12 528.4 582.86 487.78 587H304.74Z" fill="black"/>
<path d="M191.87 376.94L413.3 373.49C413.3 373.49 425.45 371.82 426.88 379.72L450.59 476.48L312.59 486.04L214.79 466.46L191.87 376.94Z" fill="#D1D3D4"/>
<path d="M270.57 358.93L297.93 352.15L304.74 358.93L313.74 435.3C313.74 435.3 318.92 448.71 318.95 449.25C318.98 449.79 301.41 452.76 301.38 452.25C301.35 451.74 289.59 434.08 289.59 434.08L276 384.15L270.57 358.93Z" fill="#E6E7E8"/>
<path d="M287.04 338.82C298.991 338.82 308.68 324.381 308.68 306.57C308.68 288.759 298.991 274.32 287.04 274.32C275.089 274.32 265.4 288.759 265.4 306.57C265.4 324.381 275.089 338.82 287.04 338.82Z" fill="#F9B499"/>
<path d="M265.67 316.23C268.376 316.23 270.57 313.244 270.57 309.56C270.57 305.876 268.376 302.89 265.67 302.89C262.964 302.89 260.77 305.876 260.77 309.56C260.77 313.244 262.964 316.23 265.67 316.23Z" fill="#F7A48B"/>
<path d="M245.56 356C245.56 356 225.38 342.87 238.03 325.57C238.03 325.57 254.85 306.51 258.21 295.78C258.21 295.78 264.46 267.59 289.93 273.04C289.93 273.04 300.18 272.88 312.99 282.33C312.99 282.33 318.92 286.01 312.99 288.1C312.99 288.1 319.56 305.39 307.06 334.54L297.93 352.16L288.48 346.55L288.65 338.73C288.65 338.73 301.46 338 306.91 319.38C306.91 319.38 311.58 304.38 305.59 289.97C305.59 289.97 296.01 296.57 286.24 302.9C286.24 302.9 268.31 316.05 261.66 305.76C261.087 307.104 260.832 308.561 260.913 310.02C260.995 311.478 261.411 312.898 262.13 314.17C262.596 314.858 263.235 315.412 263.983 315.775C264.731 316.139 265.561 316.299 266.39 316.24V346.7L245.56 356Z" fill="#2F2E41"/>
<path d="M266.39 316.23V346.7C266.39 346.7 281.48 374.98 291.49 376.89C291.925 376.965 292.371 376.954 292.802 376.856C293.233 376.758 293.64 376.576 294 376.32C296.51 374.58 301.82 368.79 297.94 352.15L288.49 346.54L288.66 338.72C288.66 338.72 272 340.85 266.39 316.23Z" fill="#F9B499"/>
<path d="M288.65 338.72L288.48 346.54C288.48 346.54 270.4 343.54 270.07 326.6C270.07 326.6 275.84 339.23 288.65 338.72Z" fill="#F7A48B"/>
<path d="M266.38 346.7L245.56 356C245.56 356 239.63 358.83 235.07 371.33C235.07 371.33 201.67 424.9 220.65 434.51C220.65 434.51 230.26 442.92 262.22 431.39L266.38 448C266.38 448 288.51 441.46 301.38 439.83C301.38 439.83 300.66 411.24 292.97 396.34C292.97 396.34 278.22 365.57 275.97 362.21L266.38 346.7Z" fill="#2F2E41"/>
<path opacity="0.2" d="M262.94 352.34C263.08 356.74 263.183 361.143 263.25 365.55C263.317 369.957 263.363 374.36 263.39 378.76L263.03 378.32C266.63 379.03 270.24 379.71 273.84 380.44L274.59 380.59L274.15 381.21L268.71 388.87V388.32C271.41 391.41 274.05 394.54 276.71 397.67C279.37 400.8 281.98 403.94 284.59 407.11C281.79 404.11 279 401.11 276.26 398.06C273.52 395.01 270.74 391.99 268.04 388.91L267.81 388.65L268.01 388.36L273.38 380.64L273.68 381.41C270.07 380.7 266.48 379.94 262.88 379.21L262.51 379.13V378.76C262.51 374.36 262.58 369.95 262.65 365.55C262.72 361.15 262.79 356.74 262.94 352.34Z" fill="black"/>
<path d="M304.74 355.99L312.39 376.94L308.56 381.41L312.39 386.69L308.68 400.63" stroke="#ED1C24" stroke-width="0.5" stroke-miterlimit="10"/>
<path d="M336 392L331.69 421L330.19 431.14C330.19 431.14 329.97 431.14 329.61 431.14C328.1 431.14 323.96 430.26 322.19 421.9C321.281 417.514 320.048 413.203 318.5 409L317 405C317 405 317.88 424.18 326.29 432.83L309.88 435.35C309.88 435.35 303.88 360.9 297.95 352.2C297.95 352.2 312.95 352.86 319.17 358.63C319.15 358.58 326.71 367.47 336 392Z" fill="#2F2E41"/>
<path opacity="0.2" d="M331.71 421L330.21 431.14C330.21 431.14 329.99 431.14 329.63 431.14C328.12 431.14 323.98 430.26 322.21 421.9C321.295 417.514 320.055 413.202 318.5 409L317 405C316.984 401.351 317.907 397.759 319.68 394.57C319.68 394.57 325.12 417.29 331.71 421Z" fill="black"/>
<path opacity="0.2" d="M314.3 360.84C314.124 362.273 314.097 363.721 314.22 365.16C314.321 366.589 314.538 368.007 314.87 369.4C315.511 372.192 316.492 374.896 317.79 377.45C319.079 380.102 319.959 382.934 320.4 385.85C320.613 387.306 320.677 388.781 320.59 390.25C320.484 391.71 320.171 393.148 319.66 394.52C320.27 391.706 320.27 388.794 319.66 385.98C319.084 383.179 318.16 380.462 316.91 377.89C315.577 375.262 314.641 372.452 314.13 369.55C313.566 366.668 313.624 363.698 314.3 360.84Z" fill="black"/>
<path opacity="0.2" d="M262.22 431.38L266.38 448L287 442.3V434.74C286.963 431.66 287.851 428.639 289.55 426.07L287 427.51C278.23 431.76 276.51 427.51 276.51 427.51L268.69 430.29C265.27 430.69 267.69 425.87 267.69 425.87L247.83 431.16C220.14 437.04 214.83 422.16 214.83 422.16C214.83 422.16 211.6 440.46 239.47 437.05C239.46 437.1 244.47 437.08 262.22 431.38Z" fill="black"/>
<path opacity="0.2" d="M253.48 398.19C253.48 398.19 256.29 393.37 256.29 390.36L265.4 416.24H259.4L253.48 398.19Z" fill="black"/>
<path opacity="0.2" d="M255.48 368.69C256.345 372.409 256.91 376.191 257.17 380C257.3 381.9 257.37 383.82 257.32 385.74C257.316 387.66 257.105 389.575 256.69 391.45C256.75 389.54 256.63 387.65 256.54 385.75C256.45 383.85 256.32 381.96 256.17 380.07C255.91 376.31 255.6 372.52 255.48 368.69Z" fill="black"/>
<path d="M269.33 416.58L273.81 417.86C274.378 418.023 274.974 418.068 275.56 417.992C276.147 417.916 276.712 417.722 277.22 417.42L289.91 409.9C291.371 409.028 293.049 408.587 294.75 408.63L316.97 409.16C316.97 409.16 319.52 413.59 310.15 412.84C310.15 412.84 317.73 419.26 315.62 420.72C315.62 420.72 314.25 423.36 309.42 417.5C310.718 419.003 311.734 420.727 312.42 422.59C312.492 422.878 312.487 423.18 312.403 423.465C312.32 423.75 312.162 424.008 311.946 424.211C311.73 424.415 311.464 424.558 311.175 424.624C310.885 424.691 310.583 424.679 310.3 424.59C308.95 424.09 307.02 422.35 304.73 417.32C304.73 417.32 307.21 424.43 304.29 424.68C304.29 424.68 302.54 425.08 301.37 418.79C301.37 418.79 299.16 417.62 295.8 421.28C295.8 421.28 281.43 434.12 276.54 427.48L268.72 430.26C268.72 430.26 265.39 431.14 267.72 425.84L268.09 417.44C268.106 417.298 268.152 417.161 268.225 417.038C268.298 416.915 268.397 416.809 268.514 416.728C268.632 416.646 268.765 416.591 268.906 416.565C269.047 416.54 269.191 416.545 269.33 416.58Z" fill="#F9B499"/>
<path d="M275.46 418C275.785 418.463 275.959 419.015 275.959 419.58C275.959 420.145 275.785 420.697 275.46 421.16C275.135 420.697 274.961 420.145 274.961 419.58C274.961 419.015 275.135 418.463 275.46 418Z" fill="#F7A48B"/>
<path d="M283.81 421.16C285.35 420.787 286.799 420.107 288.07 419.16C288.682 418.684 289.245 418.148 289.75 417.56C290.3 417.01 290.59 416.31 291.28 415.63C291.944 415.001 292.792 414.601 293.7 414.49C294.597 414.387 295.503 414.58 296.28 415.04C297.773 415.852 298.884 417.222 299.37 418.85C298.586 417.475 297.385 416.386 295.94 415.74C295.292 415.413 294.558 415.297 293.841 415.409C293.123 415.52 292.459 415.852 291.94 416.36C291.44 416.79 291.03 417.61 290.42 418.19C289.846 418.809 289.194 419.35 288.48 419.8C287.081 420.68 285.463 421.151 283.81 421.16Z" fill="#F7A48B"/>
<path d="M295.22 411.06C296.238 411.024 297.254 411.169 298.22 411.49C299.189 411.785 300.112 412.216 300.96 412.77C301.39 413.04 301.79 413.36 302.19 413.67C302.566 414.014 302.92 414.382 303.25 414.77C303.909 415.531 304.423 416.405 304.77 417.35C304.06 416.64 303.43 415.93 302.69 415.35C301.984 414.719 301.224 414.15 300.42 413.65C298.787 412.598 297.043 411.73 295.22 411.06Z" fill="#F7A48B"/>
<path d="M299.31 409.74C300.421 409.84 301.51 410.11 302.54 410.54C303.585 410.956 304.573 411.504 305.48 412.17C306.396 412.836 307.211 413.631 307.9 414.53C308.587 415.428 309.102 416.445 309.42 417.53C308.77 416.666 308.065 415.844 307.31 415.07C306.565 414.314 305.755 413.625 304.89 413.01C303.138 411.745 301.27 410.65 299.31 409.74Z" fill="#F7A48B"/>
<path d="M310.15 412.84C309.339 412.07 308.439 411.399 307.47 410.84C307.006 410.579 306.517 410.364 306.01 410.2C305.5 410 304.95 409.89 304.36 409.7C304.934 409.471 305.554 409.379 306.17 409.43C306.815 409.481 307.44 409.675 308 410C308.546 410.301 309.028 410.705 309.42 411.19C309.798 411.67 310.049 412.238 310.15 412.84Z" fill="#F7A48B"/>
<path d="M266.38 448C266.38 448 267.24 490 294.97 491C299.051 491.087 303.101 490.271 306.83 488.61L381.17 456.45C381.73 456.26 382.43 456.77 382.85 457.45C383.7 458.77 385.58 460.45 390.02 459C390.284 458.922 390.565 458.917 390.831 458.988C391.098 459.058 391.339 459.201 391.53 459.4L441 511.22L477.14 491.89C477.14 491.89 423.14 437.89 405.92 426.75C405.92 426.75 398.5 419.81 389.51 422.21L301.4 439.79C289.496 441.426 277.771 444.174 266.38 448Z" fill="#2F2E41"/>
<path opacity="0.2" d="M382 442.09C382.35 443.939 382.517 445.818 382.5 447.7C382.522 449.582 382.355 451.462 382 453.31C381.64 451.462 381.473 449.582 381.5 447.7C381.478 445.818 381.645 443.938 382 442.09Z" fill="black"/>
<path opacity="0.2" d="M395.61 447.7C395.196 449.342 394.606 450.935 393.85 452.45C393.125 453.98 392.233 455.426 391.19 456.76C391.607 455.109 392.214 453.511 393 452C393.708 450.474 394.583 449.032 395.61 447.7Z" fill="black"/>
<path d="M435.2 555.15C433.2 557.15 391.2 566.08 391.2 566.08L368.94 492.48C368.838 492.092 368.622 491.744 368.32 491.48C366.779 490.218 365.642 488.532 365.05 486.63C364.926 486.22 364.673 485.861 364.329 485.605C363.985 485.349 363.568 485.211 363.14 485.21L312.63 485.99L381.18 456.33C381.528 456.196 381.913 456.192 382.264 456.319C382.615 456.445 382.908 456.694 383.09 457.02C383.09 457.02 384.03 460.42 390.03 458.85C390.03 458.85 390.73 458.4 391.54 459.25C391.54 459.25 399.74 469.53 412.89 500.95L435.2 555.15Z" fill="#2F2E41"/>
<path opacity="0.2" d="M368.31 491.53C368.31 491.53 367.72 455.94 383.54 464.05L403.93 481.1C403.93 481.1 392.3 457.19 390 458.9C390 458.9 384.16 460.84 383.06 457.07C383.06 457.07 382.72 455.7 381.15 456.38L312.62 486L363.13 485.22C363.587 485.297 364.014 485.497 364.367 485.798C364.719 486.1 364.983 486.491 365.13 486.93C365.13 486.93 366.38 490.16 368.31 491.53Z" fill="black"/>
<path d="M144.62 497.77H160.64" stroke="#ED1C24" stroke-width="0.5" stroke-miterlimit="10"/>
<path d="M144.06 533.94H160.08" stroke="#ED1C24" stroke-width="0.5" stroke-miterlimit="10"/>
<path d="M144.62 571.66H160.64" stroke="#ED1C24" stroke-width="0.5" stroke-miterlimit="10"/>
<path d="M331.71 435.08L338.02 391.5L395.61 381.39L388.86 426.38L331.71 435.08Z" fill="#0071F2"/>
<path opacity="0.2" d="M331.71 435.08L338.02 391.5L395.61 381.39L388.86 426.38L331.71 435.08Z" fill="white"/>
<path d="M299.37 439.95L331.71 435.08L338.02 391.5L335.02 392.2L329.16 432.34L299.37 436.91V439.95Z" fill="#0071F2"/>
<path opacity="0.3" d="M299.37 439.95L331.71 435.08L338.02 391.5L335.02 392.2L329.16 432.34L299.37 436.91V439.95Z" fill="white"/>
<path opacity="0.2" d="M367.896 406.345C368.333 403.434 367.239 400.857 365.453 400.589C363.667 400.321 361.865 402.464 361.428 405.375C360.992 408.286 362.085 410.863 363.871 411.131C365.657 411.399 367.459 409.256 367.896 406.345Z" fill="white"/>
<path d="M204 473.86C204 473.86 222.32 469.15 234.43 464.81C234.43 464.81 281.62 442.45 293.73 463.25C293.73 463.25 310.11 490.89 318.73 536.25C318.73 536.25 324.73 580.17 277.94 586.85C275.76 587.16 136.33 586.85 136.33 586.85L140.91 481.65C140.91 481.65 144.19 421.41 149.76 390.39C149.76 390.39 148.48 378.65 162.83 375.87L177.41 374.37L204 473.86Z" fill="#D1D3D4"/>
<path d="M177.38 374.34C177.38 374.34 191.95 368.55 198.16 387.2L224.21 468.2L204 473.86L177.38 374.34Z" fill="#BCBEC0"/>
<path d="M275.76 454.44C275.76 454.44 299.88 448.23 307.92 458.44C321.226 477.12 331.921 497.528 339.71 519.1C339.71 519.1 363.78 573.51 304.43 587.01L277.91 586.8C277.91 586.8 323.12 575.8 318.7 536.2C318.7 536.2 310.98 495.28 294.76 465.06C294.76 465.08 290.55 454.87 275.76 454.44Z" fill="#BCBEC0"/>
<path d="M432.22 601.19C432.185 601.361 432.09 601.514 431.953 601.622C431.816 601.73 431.645 601.786 431.47 601.78C414.98 601.32 402.61 575.46 402.61 575.46C400.42 571.3 402.43 569.46 402.61 569.29L403.93 563.29L416.93 560.29L417.93 567.65C417.47 577.27 430.52 596.72 430.52 596.72C430.867 597.238 431.185 597.775 431.47 598.33C432.034 599.172 432.298 600.18 432.22 601.19Z" fill="#F9B499"/>
<path d="M440 612.74H428.78C424.262 612.746 419.815 611.609 415.855 609.434C411.894 607.259 408.549 604.117 406.13 600.3C405.28 598.95 404.84 598.06 404.84 598.06C403.34 593.45 401.6 595.59 401.6 595.59V605H397.71L397.81 583C396.92 571.66 402.28 569.39 402.6 569.27C402.43 569.42 400.42 571.27 402.6 575.44C402.6 575.44 414.97 601.3 431.46 601.76C431.634 601.766 431.806 601.71 431.943 601.602C432.08 601.494 432.175 601.341 432.21 601.17C432.287 600.172 432.03 599.176 431.48 598.34L441.28 610C441.475 610.246 441.598 610.542 441.635 610.853C441.671 611.165 441.62 611.481 441.487 611.766C441.354 612.05 441.145 612.292 440.882 612.464C440.619 612.636 440.314 612.732 440 612.74Z" fill="#0071F2"/>
<path d="M193.23 488.52H110.9V608.06H193.23V488.52Z" fill="#0071F2"/>
<path opacity="0.2" d="M187.63 491.53H115.84V601.14H187.63V491.53Z" stroke="black" stroke-miterlimit="10"/>
<path opacity="0.2" d="M115.84 528.86H187.63" stroke="black" stroke-miterlimit="10"/>
<path opacity="0.2" d="M115.84 566.15H187.63" stroke="black" stroke-miterlimit="10"/>
<path d="M110.9 488.52H87.99V608.06H110.9V488.52Z" fill="#0071F2"/>
<path opacity="0.2" d="M110.9 488.52H87.99V608.06H110.9V488.52Z" fill="black"/>
<path d="M198.79 481.43H106.21V488.52H198.79V481.43Z" fill="#0071F2"/>
<path opacity="0.2" d="M198.79 481.43H106.21V488.52H198.79V481.43Z" fill="white"/>
<path d="M106.2 481.43H81.96V488.52H106.2V481.43Z" fill="#0071F2"/>
<path opacity="0.3" d="M106.2 481.43H81.96V488.52H106.2V481.43Z" fill="white"/>
<path d="M141.82 472.79H83.33V481.43H141.82V472.79Z" fill="#E6E7E8"/>
<path d="M146.82 464.76H91.21V472.79H146.82V464.76Z" fill="#2F2E41"/>
<path d="M139.84 457.49H86.96V464.76H139.84V457.49Z" fill="#0071F2"/>
<path d="M77.13 207.33V282.15C77.1326 283.343 77.6076 284.486 78.4509 285.329C79.2943 286.172 80.4373 286.647 81.63 286.65H205.77C206.963 286.65 208.108 286.176 208.952 285.332C209.796 284.488 210.27 283.343 210.27 282.15V207.33C210.27 206.137 209.796 204.992 208.952 204.148C208.108 203.304 206.963 202.83 205.77 202.83H81.63C80.4373 202.833 79.2943 203.308 78.4509 204.151C77.6076 204.994 77.1326 206.137 77.13 207.33Z" fill="#D1D3D4"/>
<path d="M176.99 237.7H200.13V217.29H176.99V237.7Z" fill="white"/>
<path d="M146.55 237.7H169.69V217.29H146.55V237.7Z" fill="white"/>
<path d="M117.84 237.7H140.98V217.29H117.84V237.7Z" fill="white"/>
<path d="M88.13 237.7H111.27V217.29H88.13V237.7Z" fill="white"/>
<path d="M94.12 235V233.79L95.66 232.3C99.35 228.79 101.02 226.92 101.04 224.74C101.08 224.355 101.033 223.966 100.903 223.601C100.772 223.237 100.561 222.907 100.285 222.635C100.01 222.363 99.6765 222.157 99.3103 222.031C98.9441 221.906 98.5544 221.864 98.17 221.91C97.0354 221.953 95.9507 222.388 95.1 223.14L94.48 221.76C95.6271 220.803 97.0759 220.282 98.57 220.29C99.1451 220.239 99.7245 220.31 100.27 220.5C100.815 220.689 101.314 220.993 101.733 221.39C102.152 221.787 102.482 222.269 102.7 222.804C102.918 223.338 103.021 223.913 103 224.49C103 227.16 101.07 229.32 98 232.26L96.84 233.33H103.34V235H94.12Z" fill="#2F2E41"/>
<path d="M134.76 222.15H129.24L128.68 225.87C129.07 225.808 129.465 225.777 129.86 225.78C130.951 225.755 132.029 226.025 132.98 226.56C133.629 226.932 134.165 227.474 134.53 228.128C134.895 228.781 135.075 229.522 135.05 230.27C135.05 233.1 132.8 235.21 129.66 235.21C128.402 235.242 127.158 234.935 126.06 234.32L126.55 232.83C127.496 233.352 128.559 233.627 129.64 233.63C130.074 233.663 130.511 233.606 130.923 233.464C131.335 233.321 131.713 233.096 132.034 232.802C132.356 232.508 132.613 232.151 132.791 231.753C132.97 231.356 133.064 230.926 133.07 230.49C133.07 228.63 131.8 227.29 128.91 227.29C128.24 227.297 127.572 227.35 126.91 227.45L127.85 220.5H134.77L134.76 222.15Z" fill="#2F2E41"/>
<path d="M156.55 222.57L154 223.93L153.62 222.44L156.78 220.75H158.45V235.21H156.56L156.55 222.57Z" fill="#2F2E41"/>
<path d="M189.08 222.57L186.56 223.93L186.18 222.44L189.34 220.75H191V235.21H189.11L189.08 222.57Z" fill="#2F2E41"/>
<path opacity="0.2" d="M77.13 237.7V282.15C77.1326 283.343 77.6076 284.486 78.4509 285.329C79.2943 286.172 80.4373 286.647 81.63 286.65H205.77C206.963 286.65 208.108 286.176 208.952 285.332C209.796 284.488 210.27 283.343 210.27 282.15V271.15C210.27 271.15 204.22 286.15 149.67 280.02C149.67 280 91 280.26 77.13 237.7Z" fill="black"/>
<path d="M222.05 362.42L222.12 361.42C223.47 361.52 224.79 361.57 226.04 361.57C227.29 361.57 228.04 361.51 228.04 361.51L228.11 362.51C228.11 362.51 227.34 362.57 226.02 362.57C224.7 362.57 223.43 362.52 222.05 362.42ZM210.12 360.42L210.39 359.42C212.28 359.94 214.23 360.37 216.2 360.71L216.04 361.71C214.045 361.367 212.07 360.923 210.12 360.38V360.42ZM198.89 355.93L199.37 355.06C201.114 355.999 202.91 356.837 204.75 357.57L204.38 358.5C202.499 357.742 200.665 356.87 198.89 355.89V355.93ZM189.12 348.81L189.81 348.09C191.233 349.461 192.75 350.73 194.35 351.89L193.77 352.7C192.13 351.5 190.576 350.187 189.12 348.77V348.81ZM181.66 339.3L182.53 338.8C183.525 340.503 184.634 342.137 185.85 343.69L185.06 344.31C183.816 342.704 182.68 341.017 181.66 339.26V339.3ZM176.89 328.22L177.89 327.93C178.457 329.821 179.125 331.68 179.89 333.5L178.97 333.9C178.168 332.035 177.473 330.125 176.89 328.18V328.22ZM174.5 316.41L175.5 316.29C175.73 318.29 176.04 320.29 176.42 322.17L175.42 322.36C175 320.41 174.73 318.4 174.5 316.37V316.41ZM173.96 306.41C173.96 305.73 173.96 305.04 173.96 304.34H174.96C174.96 305.03 174.96 305.71 174.96 306.34C174.96 307.66 174.96 308.98 175.04 310.26H174.04C174 309.07 174 307.73 174 306.4L173.96 306.41ZM174.26 298.32C174.41 296.38 174.6 294.32 174.85 292.32L175.85 292.44C175.61 294.44 175.41 296.44 175.27 298.39L174.26 298.32Z" fill="#2F2E41"/>
<path d="M476.79 263.7L481.79 260.55L478.79 255.38L473.17 257.63L469.06 251L473.56 248.64L470.63 243L465.68 245.93L446.1 215.76C448.696 213.007 450.672 209.729 451.895 206.148C453.118 202.567 453.56 198.766 453.19 195C452.06 183 440.81 172 428.76 171.11C424.889 170.821 421.002 171.384 417.373 172.759C413.743 174.135 410.459 176.29 407.752 179.072C405.046 181.854 402.982 185.196 401.706 188.862C400.431 192.528 399.975 196.429 400.37 200.29C401.65 213.23 413.89 224.18 426.89 224.12C429.438 224.113 431.971 223.736 434.41 223L470.72 278C470.952 278.352 471.31 278.602 471.72 278.7L481.46 280.95C481.493 280.96 481.529 280.961 481.563 280.954C481.597 280.948 481.629 280.933 481.656 280.911C481.683 280.89 481.705 280.862 481.72 280.831C481.734 280.799 481.741 280.765 481.74 280.73V271.41C481.739 271.075 481.638 270.747 481.45 270.47L476.79 263.7ZM424.11 197.21C423.356 197.558 422.559 197.803 421.74 197.94C420.474 198.156 419.179 198.121 417.927 197.836C416.675 197.551 415.492 197.022 414.445 196.278C413.398 195.535 412.508 194.593 411.826 193.505C411.144 192.418 410.683 191.206 410.47 189.94C410.168 188.223 410.34 186.456 410.97 184.83C411.538 183.33 412.468 181.993 413.676 180.937C414.884 179.882 416.334 179.14 417.897 178.779C419.461 178.417 421.089 178.447 422.638 178.864C424.187 179.282 425.609 180.075 426.779 181.173C427.948 182.272 428.829 183.641 429.343 185.161C429.857 186.681 429.988 188.304 429.725 189.887C429.462 191.47 428.813 192.963 427.836 194.235C426.858 195.507 425.582 196.519 424.12 197.18L424.11 197.21Z" fill="#0071F2"/>
<path opacity="0.2" d="M476.79 263.7L481.79 260.55L478.79 255.38L473.17 257.63L469.06 251L473.56 248.64L470.63 243L465.68 245.93L446.1 215.76C448.696 213.007 450.672 209.729 451.895 206.148C453.118 202.567 453.56 198.766 453.19 195C452.06 183 440.81 172 428.76 171.11C424.889 170.821 421.002 171.384 417.373 172.759C413.743 174.135 410.459 176.29 407.752 179.072C405.046 181.854 402.982 185.196 401.706 188.862C400.431 192.528 399.975 196.429 400.37 200.29C401.65 213.23 413.89 224.18 426.89 224.12C429.438 224.113 431.971 223.736 434.41 223L470.72 278C470.952 278.352 471.31 278.602 471.72 278.7L481.46 280.95C481.493 280.96 481.529 280.961 481.563 280.954C481.597 280.948 481.629 280.933 481.656 280.911C481.683 280.89 481.705 280.862 481.72 280.831C481.734 280.799 481.741 280.765 481.74 280.73V271.41C481.739 271.075 481.638 270.747 481.45 270.47L476.79 263.7ZM424.11 197.21C423.356 197.558 422.559 197.803 421.74 197.94C420.474 198.156 419.179 198.121 417.927 197.836C416.675 197.551 415.492 197.022 414.445 196.278C413.398 195.535 412.508 194.593 411.826 193.505C411.144 192.418 410.683 191.206 410.47 189.94C410.168 188.223 410.34 186.456 410.97 184.83C411.538 183.33 412.468 181.993 413.676 180.937C414.884 179.882 416.334 179.14 417.897 178.779C419.461 178.417 421.089 178.447 422.638 178.864C424.187 179.282 425.609 180.075 426.779 181.173C427.948 182.272 428.829 183.641 429.343 185.161C429.857 186.681 429.988 188.304 429.725 189.887C429.462 191.47 428.813 192.963 427.836 194.235C426.858 195.507 425.582 196.519 424.12 197.18L424.11 197.21Z" fill="black"/>
<path d="M475.37 263.7L480.37 260.55L477.37 255.38L471.75 257.63L467.64 251L472.14 248.64L469.21 243L464.26 245.93L444.68 215.75C447.273 212.997 449.247 209.721 450.468 206.142C451.69 202.563 452.13 198.764 451.76 195C450.63 183 439.38 172 427.34 171.11C423.468 170.819 419.58 171.381 415.949 172.756C412.319 174.131 409.033 176.286 406.326 179.068C403.618 181.85 401.553 185.192 400.277 188.859C399.001 192.526 398.545 196.428 398.94 200.29C400.22 213.23 412.46 224.18 425.46 224.12C428.014 224.114 430.554 223.736 433 223L469.3 278C469.534 278.35 469.891 278.599 470.3 278.7L480 281C480.034 281.009 480.069 281.01 480.104 281.004C480.138 280.997 480.171 280.982 480.199 280.961C480.227 280.94 480.25 280.913 480.266 280.881C480.281 280.85 480.29 280.815 480.29 280.78V271.46C480.286 271.124 480.181 270.797 479.99 270.52L475.37 263.7ZM422.69 197.21C421.936 197.558 421.139 197.803 420.32 197.94C419.055 198.164 417.758 198.137 416.504 197.859C415.25 197.581 414.063 197.058 413.011 196.32C411.96 195.583 411.064 194.645 410.376 193.56C409.687 192.475 409.22 191.266 409 190C408.698 188.283 408.87 186.516 409.5 184.89C410.068 183.39 410.998 182.053 412.206 180.997C413.414 179.942 414.864 179.2 416.427 178.839C417.991 178.477 419.619 178.507 421.168 178.924C422.717 179.342 424.139 180.135 425.309 181.233C426.478 182.332 427.359 183.701 427.873 185.221C428.387 186.741 428.518 188.364 428.255 189.947C427.992 191.53 427.343 193.023 426.366 194.295C425.388 195.567 424.112 196.579 422.65 197.24L422.69 197.21Z" fill="#E6E7E8"/>
</svg>
