<svg width="118" height="163" viewBox="0 0 118 163" fill="none" xmlns="http://www.w3.org/2000/svg">
<path d="M0 162.606V160.006C0 127.306 0 94.6057 0 61.9057C0 45.0057 11.3 31.1057 27.8 28.6057C35 27.5057 42.6 28.4057 50.5 28.4057V31.2057C50.5 63.3057 50.5 95.5057 50.5 127.606C50.5 148.106 36 162.606 15.4 162.606C10.5 162.606 5.5 162.606 0 162.606ZM67.3 106.406V0.00573825C76.7 0.505738 86 -1.19426 95 2.10574C108.3 6.80574 117.4 19.8058 117.6 34.5058C117.8 46.4058 117.7 58.2057 117.7 70.1057C117.6 90.3057 104.7 105.006 85.5 106.406C79.6 106.706 73.6 106.406 67.3 106.406Z" fill="white"/>
</svg>
