<svg width="23" height="20" viewBox="0 0 23 20" fill="none" xmlns="http://www.w3.org/2000/svg">
<path d="M22.6478 3.06203C21.7995 3.43725 20.9 3.68367 19.9789 3.79315C20.9498 3.21252 21.6764 2.29872 22.0234 1.22203C21.1123 1.76426 20.1134 2.14426 19.0723 2.34981C18.3729 1.60157 17.446 1.10533 16.4355 0.938239C15.4251 0.771149 14.3878 0.942579 13.4848 1.42587C12.5818 1.90916 11.8638 2.67724 11.4424 3.61069C11.021 4.54413 10.9198 5.59063 11.1545 6.58763C9.30676 6.49503 7.49926 6.01483 5.84916 5.17833C4.19916 4.34183 2.74348 3.16764 1.57667 1.73203C1.16366 2.44142 0.94662 3.24784 0.94778 4.0687C0.94778 5.67983 1.76778 7.10313 3.01445 7.93643C2.27668 7.91323 1.55515 7.71403 0.91 7.35533V7.41313C0.91022 8.48613 1.28152 9.52603 1.96094 10.3565C2.64036 11.187 3.58609 11.757 4.63778 11.9698C3.95291 12.1554 3.23479 12.1827 2.53778 12.0498C2.8343 12.9734 3.41223 13.7811 4.19066 14.3599C4.96909 14.9387 5.90906 15.2596 6.87886 15.2776C5.91496 16.0346 4.81131 16.5942 3.63098 16.9244C2.45065 17.2546 1.21681 17.349 0 17.202C2.12411 18.568 4.59677 19.2932 7.12226 19.2909C15.67 19.2909 20.3445 12.2098 20.3445 6.06873C20.3445 5.86873 20.3389 5.66643 20.33 5.46873C21.2399 4.81113 22.0251 3.9965 22.6489 3.06315L22.6478 3.06203Z" fill="#6C6F93"/>
</svg>
